<?xml version="1.0" encoding="UTF-8"?>
<svg id="Layer_1" data-name="Layer 1" xmlns="http://www.w3.org/2000/svg" version="1.1" viewBox="0 0 839.05 305">
  <polygon points="299.367 68.878 143.651 33.856 68.562 71.478 2.482 104.586 70.315 283.692 215.709 302.509 228.898 288.338 311.61 199.467 299.367 68.878" fill="#337a87" stroke-width="0"/>
  <path d="M319.634,85.509c-5.036-29.455-44.92-58.453-76.313-66.667-53.744-14.062-124.566-27.15-151.004-2.659-9.671,8.959-17.709,30.282-23.755,55.294-7.783,32.197-12.265,70.508-12.681,96.436-.289,18.041,5.63,55.244,22.097,66.24,37.63,25.127,110.186,52.696,150.92,54.183,4.966.181,9.46-.024,13.359-.67,25.577-4.235,60.991-31.668,70.264-60.313,8.972-27.714,15.276-94.098,7.112-141.846Z" fill="#9fd6e0" stroke-width="0"/>
  <path d="M299.367,68.878l-155.716-35.022-75.09,37.622c-7.783,32.197-12.265,70.508-12.681,96.436-.289,18.041,5.63,55.244,22.097,66.24,37.63,25.127,110.186,52.696,150.92,54.183l82.711-88.871-12.243-130.589Z" fill="#35c5df" stroke-width="0"/>
  <g>
    <path d="M146.324,151.911l-15.243-6.383c-9.428-3.854-17.99-7.103-17.99-15.898,0-8.181,6.923-13.128,17.559-13.128,9.665,0,17.328,3.579,24.557,9.693l10.49-12.966c-8.931-9.025-21.812-14.485-35.047-14.485-22.214,0-38.216,13.973-38.216,32.084,0,16.57,11.719,25.462,22.92,30.117l15.456,6.701c10.276,4.352,17.541,7.293,17.541,16.49,0,8.717-6.899,14.414-19.538,14.414-10.47,0-21.333-5.18-29.446-12.87l-11.901,14.028c10.799,10.592,25.627,16.599,40.921,16.599,25.548,0,40.833-15.387,40.833-33.794,0-16.414-9.385-24.986-22.897-30.603Z" fill="#000" stroke-width="0"/>
    <path d="M224.949,199.749c-13.12,0-22.415-11.141-22.415-28.076s9.406-28.209,23.053-28.209c5.267,0,9.517,2.247,14.002,6.174l9.852-13.179c-6.188-5.415-14.11-9.555-24.918-9.555-22.75,0-42.859,16.382-42.859,44.769s17.871,44.635,41.157,44.635c9.689,0,19.85-3.366,27.851-10.461l-8.229-13.391c-4.833,4.06-10.896,7.293-17.495,7.293Z" fill="#000" stroke-width="0"/>
    <path d="M274.473,91.352c-7.165,0-12.493,4.635-12.493,11.429,0,6.661,5.328,11.43,12.493,11.43s12.493-4.769,12.493-11.43c0-6.794-5.328-11.429-12.493-11.429Z" fill="#000" stroke-width="0"/>
    <rect x="264.251" y="128.985" width="20.311" height="85.241" fill="#000" stroke-width="0"/>
    <path d="M370.316,100.186h-30.797v114.04h11.49v-46.992h20c25.159,0,41.425-11.05,41.425-34.303,0-24.251-16.443-32.745-42.118-32.745ZM369.098,157.795h-18.089v-48.17h17.396c21.664,0,32.446,5.649,32.446,23.307,0,17.395-10.266,24.863-31.753,24.863Z" fill="#000" stroke-width="0"/>
    <path d="M440.962,145.832h-.432l-1.033-15.439h-9.347v83.834h11.229v-55.288c5.996-14.944,14.676-20.332,21.967-20.332,3.292,0,5.019.433,7.878,1.388l2.236-9.948c-2.689-1.303-5.245-1.734-8.656-1.734-9.678,0-18.08,7.037-23.842,17.521Z" fill="#000" stroke-width="0"/>
    <path d="M515.517,128.311c-20.365,0-38.295,16.125-38.295,44.129,0,27.742,17.93,43.867,38.295,43.867s38.296-16.125,38.296-43.867c0-28.004-17.931-44.129-38.296-44.129ZM515.517,206.783c-15.567,0-26.634-13.826-26.634-34.343s11.066-34.604,26.634-34.604,26.635,14.088,26.635,34.604-11.066,34.343-26.635,34.343Z" fill="#000" stroke-width="0"/>
    <path d="M574.926,114.68v15.74l-11.446.751v8.576h11.446v74.479h11.229v-74.479h18.498v-9.354h-18.498v-15.442c0-11.426,3.993-17.564,12.425-17.564,3.037,0,6.421.693,9.72,2.258l2.583-8.753c-3.815-1.649-8.572-2.859-13.145-2.859-15.188,0-22.812,9.795-22.812,26.649Z" fill="#000" stroke-width="0"/>
    <rect x="623.998" y="130.392" width="11.229" height="83.834" fill="#000" stroke-width="0"/>
    <path d="M629.743,95.573c-4.734,0-8.527,3.1-8.527,8.104,0,4.742,3.793,8.104,8.527,8.104s8.528-3.361,8.528-8.104c0-5.004-3.794-8.104-8.528-8.104Z" fill="#000" stroke-width="0"/>
    <path d="M678.82,206.783c-2.081,0-3.809-1.734-3.809-5.797v-110.874h-11.229v109.834c0,10.778,3.97,16.361,12.822,16.361,3.185,0,5.159-.517,6.971-1.118l-1.635-8.753c-1.649.347-2.343.347-3.121.347Z" fill="#000" stroke-width="0"/>
    <path d="M731.965,128.311c-19.062,0-37.17,16.819-37.17,44.129,0,27.479,17.591,43.867,39.506,43.867,11.808,0,20.103-3.992,27.11-8.487l-4.21-7.734c-6.244,4.255-13.104,7.037-21.62,7.037-17.31,0-28.871-13.162-29.55-32.476h58.205c.389-2.081.559-4.664.559-7.247,0-24.288-12.141-39.089-32.83-39.089ZM705.946,166.226c1.734-18.104,13.31-28.73,26.188-28.73,13.996,0,22.534,9.826,22.534,28.73h-48.723Z" fill="#000" stroke-width="0"/>
    <path d="M810.161,166.481c-9.72-3.646-19.185-6.952-19.185-15.653,0-7.006,5.353-13.502,17.062-13.502,7.865,0,13.805,3.299,19.524,7.547l5.583-7.473c-6.321-5.068-15.332-9.089-25.1-9.089-17.846,0-28.052,10.313-28.052,23.118,0,14.222,13.627,19.714,25.782,24.096,9.457,3.469,19.793,7.646,19.793,17.133,0,7.923-6.096,14.635-18.104,14.635-10.916,0-18.42-4.347-25.612-10.243l-5.845,7.642c7.708,6.498,18.878,11.616,31.025,11.616,19.041,0,29.517-11.177,29.517-24.336,0-16.133-13.889-20.758-26.391-25.49Z" fill="#000" stroke-width="0"/>
  </g>
</svg>
